<svg xmlns="http://www.w3.org/2000/svg" xmlns:svg="http://www.w3.org/2000/svg" id="svg7980" width="100" height="100" version="1.1" viewBox="0 0 100 100"><metadata id="metadata7985"/><g id="layer1" transform="translate(0,-952.36216)"><circle style="stroke-width:1;stroke-linecap:round;stroke-linejoin:round;stroke-miterlimit:4;stroke-dasharray:none;fill:#3ba44e;stroke:#000;stroke-opacity:1;fill-opacity:1" id="path7988" cx="47.424" cy="995.948" r="36.212"/><path id="path8537" style="font-style:normal;font-weight:400;font-size:medium;line-height:125%;font-family:sans-serif;letter-spacing:0;word-spacing:0;fill:#000;fill-opacity:1;stroke:none;stroke-width:1px;stroke-linecap:butt;stroke-linejoin:miter;stroke-opacity:1" d="m 47.424244,1020.086 q -5.878906,0 -10.566406,-1.9141 -4.6875,-1.914 -8.652344,-5.3711 l 0,-4.4726 0.195312,0 q 1.347657,1.5039 3.300782,3.0078 1.933593,1.5234 4.335937,2.6758 2.5,1.2109 5.273438,1.914 2.773437,0.7227 6.113281,0.7227 3.203125,0 6.09375,-0.7227 2.890625,-0.7226 5.292969,-1.914 2.480468,-1.2305 4.335937,-2.6758 1.875,-1.4258 3.300781,-3.0078 l 0.195313,0 0,4.4726 q -3.964844,3.4571 -8.652344,5.3711 -4.6875,1.9141 -10.566406,1.9141 z"/><circle style="fill:#fff;stroke:#000;stroke-width:1;stroke-linecap:round;stroke-linejoin:round;stroke-miterlimit:4;stroke-dasharray:none;stroke-opacity:1;fill-opacity:1" id="path8541" cx="33.283" cy="983.423" r="4.697"/><circle id="circle8545" cx="61.283" cy="983.423" r="4.697" style="fill:#fff;stroke:#000;stroke-width:1;stroke-linecap:round;stroke-linejoin:round;stroke-miterlimit:4;stroke-dasharray:none;stroke-opacity:1;fill-opacity:1"/></g></svg>